<?xml version="1.0" encoding="utf-8"?>
<svg xmlns="http://www.w3.org/2000/svg" style="margin: auto; background: none; display: block; shape-rendering: auto;" width="274" height="40" preserveAspectRatio="xMidYMid">
<style type="text/css">
  text {
    text-anchor: middle; font-size: 26px; opacity: 0;
  }
</style>
<g style="transform-origin: 137px 20px; transform: scale(0.83871);">
<g transform="translate(137,20)">
  <g transform="translate(-5,0)"><g class="path" style="opacity: 1; transform-origin: -150.5px -1.25737px; animation: 10s linear -6.16s infinite normal forwards running fade-2fcb6378-1540-4388-8d75-412beaa7884f;"><path d="M12.55-19.01L12.55 0L6.54 0L6.54-19.01L0.61-19.01L0.61-21.80L18.48-21.80L18.48-19.01L12.55-19.01" fill="#0098ff" stroke="none" stroke-width="none" transform="translate(-160.04501152038574,9.642625002543133)" style="fill: rgb(0, 152, 255);"></path></g><g class="path" style="opacity: 1; transform-origin: -130.115px -0.457376px; animation: 10s linear -5.72s infinite normal forwards running fade-2fcb6378-1540-4388-8d75-412beaa7884f;"><path d="M38.87-10.02L38.87-10.02L38.87-10.02Q38.87-8.25 38.44-6.33L38.44-6.33L38.44-6.33Q38.01-4.40 37.24-2.56L37.24-2.56L37.24-2.56Q36.46-0.71 35.39 0.92L35.39 0.92L35.39 0.92Q34.31 2.54 33.03 3.72L33.03 3.72L31.11 2.68L31.11 2.68Q31.51 1.92 31.88 0.98L31.88 0.98L31.88 0.98Q32.24 0.05 32.54-1.01L32.54-1.01L32.54-1.01Q32.83-2.06 33.07-3.18L33.07-3.18L33.07-3.18Q33.30-4.30 33.46-5.40L33.46-5.40L33.46-5.40Q33.62-6.49 33.70-7.53L33.70-7.53L33.70-7.53Q33.79-8.57 33.79-9.46L33.79-9.46L33.79-9.46Q33.79-10.05 33.74-10.72L33.74-10.72L33.74-10.72Q33.69-11.40 33.55-12.07L33.55-12.07L33.55-12.07Q33.41-12.75 33.16-13.37L33.16-13.37L33.16-13.37Q32.92-13.99 32.52-14.46L32.52-14.46L32.52-14.46Q32.12-14.92 31.55-15.21L31.55-15.21L31.55-15.21Q30.98-15.50 30.21-15.50L30.21-15.50L30.21-15.50Q29.46-15.50 28.87-15.16L28.87-15.16L28.87-15.16Q28.28-14.82 27.82-14.27L27.82-14.27L27.82-14.27Q27.37-13.71 27.04-13.00L27.04-13.00L27.04-13.00Q26.72-12.29 26.51-11.54L26.51-11.54L26.51-11.54Q26.31-10.79 26.22-10.07L26.22-10.07L26.22-10.07Q26.13-9.34 26.13-8.76L26.13-8.76L26.13 0L20.99 0L20.99-23.92L26.11-23.92L26.11-14.91L26.11-14.91Q27.09-16.35 28.53-17.13L28.53-17.13L28.53-17.13Q29.96-17.91 31.70-17.91L31.70-17.91L31.70-17.91Q33.51-17.91 34.86-17.32L34.86-17.32L34.86-17.32Q36.21-16.73 37.10-15.67L37.10-15.67L37.10-15.67Q37.99-14.62 38.43-13.18L38.43-13.18L38.43-13.18Q38.87-11.73 38.87-10.02" fill="#0098ff" stroke="none" stroke-width="none" transform="translate(-160.04501152038574,9.642625002543133)" style="fill: rgb(0, 152, 255);"></path></g><g class="path" style="opacity: 1; transform-origin: -109.9px 0.862625px; animation: 10s linear -5.28s infinite normal forwards running fade-2fcb6378-1540-4388-8d75-412beaa7884f;"><path d="M46.45-8.29L46.45-8.29L46.45-8.29Q47.39-8.08 48.33-7.96L48.33-7.96L48.33-7.96Q49.27-7.84 50.22-7.84L50.22-7.84L50.22-7.84Q51.22-7.84 52.08-8.03L52.08-8.03L52.08-8.03Q52.93-8.22 53.56-8.67L53.56-8.67L53.56-8.67Q54.19-9.11 54.55-9.85L54.55-9.85L54.55-9.85Q54.92-10.60 54.92-11.70L54.92-11.70L54.92-11.70Q54.92-12.59 54.67-13.34L54.67-13.34L54.67-13.34Q54.43-14.08 53.95-14.61L53.95-14.61L53.95-14.61Q53.48-15.14 52.78-15.43L52.78-15.43L52.78-15.43Q52.09-15.73 51.16-15.73L51.16-15.73L51.16-15.73Q50.30-15.73 49.61-15.41L49.61-15.41L49.61-15.41Q48.92-15.09 48.40-14.55L48.40-14.55L48.40-14.55Q47.88-14.02 47.51-13.31L47.51-13.31L47.51-13.31Q47.14-12.59 46.89-11.82L46.89-11.82L46.89-11.82Q46.65-11.05 46.55-10.26L46.55-10.26L46.55-10.26Q46.44-9.48 46.44-8.78L46.44-8.78L46.44-8.78Q46.44-8.66 46.44-8.54L46.44-8.54L46.44-8.54Q46.44-8.42 46.45-8.29zM59.06-11.75L59.06-11.75L59.06-11.75Q59.06-10.67 58.72-9.83L58.72-9.83L58.72-9.83Q58.37-8.99 57.77-8.36L57.77-8.36L57.77-8.36Q57.17-7.72 56.38-7.28L56.38-7.28L56.38-7.28Q55.60-6.84 54.70-6.56L54.70-6.56L54.70-6.56Q53.81-6.28 52.86-6.16L52.86-6.16L52.86-6.16Q51.92-6.04 51.03-6.04L51.03-6.04L51.03-6.04Q49.89-6.04 48.79-6.20L48.79-6.20L48.79-6.20Q47.68-6.36 46.61-6.71L46.61-6.71L46.61-6.71Q46.77-5.71 47.14-4.81L47.14-4.81L47.14-4.81Q47.50-3.91 48.10-3.23L48.10-3.23L48.10-3.23Q48.71-2.56 49.60-2.16L49.60-2.16L49.60-2.16Q50.48-1.77 51.69-1.77L51.69-1.77L51.69-1.77Q52.49-1.77 53.22-2.01L53.22-2.01L53.22-2.01Q53.95-2.26 54.55-2.69L54.55-2.69L54.55-2.69Q55.16-3.13 55.62-3.74L55.62-3.74L55.62-3.74Q56.08-4.34 56.37-5.09L56.37-5.09L58.58-4.27L58.58-4.27Q58.08-3.07 57.21-2.20L57.21-2.20L57.21-2.20Q56.34-1.33 55.24-0.76L55.24-0.76L55.24-0.76Q54.14-0.20 52.91 0.08L52.91 0.08L52.91 0.08Q51.68 0.35 50.47 0.35L50.47 0.35L50.47 0.35Q48.47 0.35 46.77-0.33L46.77-0.33L46.77-0.33Q45.08-1.00 43.85-2.21L43.85-2.21L43.85-2.21Q42.63-3.42 41.93-5.10L41.93-5.10L41.93-5.10Q41.23-6.78 41.23-8.78L41.23-8.78L41.23-8.78Q41.23-10.78 41.93-12.46L41.93-12.46L41.93-12.46Q42.63-14.14 43.85-15.35L43.85-15.35L43.85-15.35Q45.08-16.56 46.77-17.23L46.77-17.23L46.77-17.23Q48.47-17.91 50.47-17.91L50.47-17.91L50.47-17.91Q51.43-17.91 52.45-17.77L52.45-17.77L52.45-17.77Q53.46-17.63 54.42-17.34L54.42-17.34L54.42-17.34Q55.37-17.04 56.22-16.57L56.22-16.57L56.22-16.57Q57.07-16.11 57.69-15.42L57.69-15.42L57.69-15.42Q58.32-14.73 58.69-13.82L58.69-13.82L58.69-13.82Q59.06-12.91 59.06-11.75" fill="#0098ff" stroke="none" stroke-width="none" transform="translate(-160.04501152038574,9.642625002543133)" style="fill: rgb(0, 152, 255);"></path></g><g class="path" style="opacity: 1; transform-origin: -89.175px -1.30237px; animation: 10s linear -4.84s infinite normal forwards running fade-2fcb6378-1540-4388-8d75-412beaa7884f;"><path d="M80.45-6.66L80.45-6.66L80.45-6.66Q80.45-5.25 80.10-4.18L80.10-4.18L80.10-4.18Q79.74-3.10 79.10-2.32L79.10-2.32L79.10-2.32Q78.45-1.53 77.58-1.00L77.58-1.00L77.58-1.00Q76.70-0.47 75.66-0.15L75.66-0.15L75.66-0.15Q74.62 0.17 73.47 0.30L73.47 0.30L73.47 0.30Q72.31 0.44 71.11 0.44L71.11 0.44L71.11 0.44Q69.54 0.44 68.21 0.20L68.21 0.20L68.21 0.20Q66.87-0.03 65.70-0.54L65.70-0.54L65.70-0.54Q64.53-1.04 63.45-1.85L63.45-1.85L63.45-1.85Q62.36-2.65 61.29-3.80L61.29-3.80L64.38-6.93L64.38-6.93Q64.80-5.89 65.54-5.00L65.54-5.00L65.54-5.00Q66.28-4.12 67.17-3.48L67.17-3.48L67.17-3.48Q68.05-2.85 69.01-2.48L69.01-2.48L69.01-2.48Q69.96-2.12 70.81-2.12L70.81-2.12L70.81-2.12Q71.81-2.12 72.69-2.26L72.69-2.26L72.69-2.26Q73.56-2.41 74.22-2.74L74.22-2.74L74.22-2.74Q74.87-3.07 75.24-3.63L75.24-3.63L75.24-3.63Q75.61-4.18 75.61-5.01L75.61-5.01L75.61-5.01Q75.61-5.65 75.32-6.10L75.32-6.10L75.32-6.10Q75.03-6.55 74.57-6.88L74.57-6.88L74.57-6.88Q74.11-7.21 73.52-7.43L73.52-7.43L73.52-7.43Q72.93-7.66 72.32-7.82L72.32-7.82L72.32-7.82Q71.70-7.98 71.11-8.11L71.11-8.11L71.11-8.11Q70.52-8.23 70.07-8.37L70.07-8.37L70.07-8.37Q69.17-8.63 68.21-8.92L68.21-8.92L68.21-8.92Q67.24-9.22 66.30-9.60L66.30-9.60L66.30-9.60Q65.36-9.98 64.52-10.47L64.52-10.47L64.52-10.47Q63.68-10.96 63.04-11.63L63.04-11.63L63.04-11.63Q62.41-12.31 62.03-13.19L62.03-13.19L62.03-13.19Q61.65-14.08 61.65-15.23L61.65-15.23L61.65-15.23Q61.65-16.60 61.99-17.67L61.99-17.67L61.99-17.67Q62.33-18.74 62.95-19.53L62.95-19.53L62.95-19.53Q63.57-20.31 64.42-20.85L64.42-20.85L64.42-20.85Q65.27-21.39 66.28-21.71L66.28-21.71L66.28-21.71Q67.30-22.04 68.44-22.18L68.44-22.18L68.44-22.18Q69.58-22.33 70.78-22.33L70.78-22.33L70.78-22.33Q72.41-22.33 73.75-22.02L73.75-22.02L73.75-22.02Q75.09-21.72 76.23-21.16L76.23-21.16L76.23-21.16Q77.36-20.60 78.31-19.82L78.31-19.82L78.31-19.82Q79.26-19.04 80.09-18.09L80.09-18.09L77.00-14.96L77.00-14.96Q76.64-16.04 75.99-16.92L75.99-16.92L75.99-16.92Q75.35-17.80 74.56-18.43L74.56-18.43L74.56-18.43Q73.78-19.06 72.91-19.40L72.91-19.40L72.91-19.40Q72.05-19.74 71.25-19.74L71.25-19.74L71.25-19.74Q70.20-19.74 69.33-19.59L69.33-19.59L69.33-19.59Q68.45-19.45 67.82-19.13L67.82-19.13L67.82-19.13Q67.19-18.80 66.84-18.25L66.84-18.25L66.84-18.25Q66.50-17.69 66.50-16.88L66.50-16.88L66.50-16.88Q66.50-16.23 66.75-15.77L66.75-15.77L66.75-15.77Q67.01-15.32 67.44-15.00L67.44-15.00L67.44-15.00Q67.87-14.68 68.42-14.48L68.42-14.48L68.42-14.48Q68.96-14.27 69.55-14.12L69.55-14.12L69.55-14.12Q70.13-13.97 70.70-13.86L70.70-13.86L70.70-13.86Q71.26-13.74 71.73-13.61L71.73-13.61L71.73-13.61Q72.64-13.35 73.64-13.06L73.64-13.06L73.64-13.06Q74.64-12.78 75.61-12.39L75.61-12.39L75.61-12.39Q76.58-12.00 77.45-11.50L77.45-11.50L77.45-11.50Q78.33-11.00 79.00-10.32L79.00-10.32L79.00-10.32Q79.66-9.63 80.06-8.73L80.06-8.73L80.06-8.73Q80.45-7.83 80.45-6.66" fill="#0098ff" stroke="none" stroke-width="none" transform="translate(-160.04501152038574,9.642625002543133)" style="fill: rgb(0, 152, 255);"></path></g><g class="path" style="opacity: 1; transform-origin: -67.43px -0.457376px; animation: 10s linear -4.4s infinite normal forwards running fade-2fcb6378-1540-4388-8d75-412beaa7884f;"><path d="M101.55-10.02L101.55-10.02L101.55-10.02Q101.55-8.25 101.12-6.33L101.12-6.33L101.12-6.33Q100.69-4.40 99.92-2.56L99.92-2.56L99.92-2.56Q99.15-0.71 98.07 0.92L98.07 0.92L98.07 0.92Q97.00 2.54 95.71 3.72L95.71 3.72L93.79 2.68L93.79 2.68Q94.20 1.92 94.56 0.98L94.56 0.98L94.56 0.98Q94.92 0.05 95.22-1.01L95.22-1.01L95.22-1.01Q95.51-2.06 95.75-3.18L95.75-3.18L95.75-3.18Q95.98-4.30 96.14-5.40L96.14-5.40L96.14-5.40Q96.30-6.49 96.38-7.53L96.38-7.53L96.38-7.53Q96.47-8.57 96.47-9.46L96.47-9.46L96.47-9.46Q96.47-10.05 96.42-10.72L96.42-10.72L96.42-10.72Q96.38-11.40 96.23-12.07L96.23-12.07L96.23-12.07Q96.09-12.75 95.85-13.37L95.85-13.37L95.85-13.37Q95.60-13.99 95.20-14.46L95.20-14.46L95.20-14.46Q94.80-14.92 94.23-15.21L94.23-15.21L94.23-15.21Q93.67-15.50 92.89-15.50L92.89-15.50L92.89-15.50Q92.14-15.50 91.55-15.16L91.55-15.16L91.55-15.16Q90.96-14.82 90.50-14.27L90.50-14.27L90.50-14.27Q90.05-13.71 89.72-13.00L89.72-13.00L89.72-13.00Q89.40-12.29 89.19-11.54L89.19-11.54L89.19-11.54Q88.99-10.79 88.90-10.07L88.90-10.07L88.90-10.07Q88.81-9.34 88.81-8.76L88.81-8.76L88.81 0L83.68 0L83.68-23.92L88.79-23.92L88.79-14.91L88.79-14.91Q89.78-16.35 91.21-17.13L91.21-17.13L91.21-17.13Q92.64-17.91 94.38-17.91L94.38-17.91L94.38-17.91Q96.19-17.91 97.54-17.32L97.54-17.32L97.54-17.32Q98.89-16.73 99.78-15.67L99.78-15.67L99.78-15.67Q100.67-14.62 101.11-13.18L101.11-13.18L101.11-13.18Q101.55-11.73 101.55-10.02" fill="#0098ff" stroke="none" stroke-width="none" transform="translate(-160.04501152038574,9.642625002543133)" style="fill: rgb(0, 152, 255);"></path></g><g class="path" style="opacity: 1; transform-origin: -46.81px 0.862625px; animation: 10s linear -3.96s infinite normal forwards running fade-2fcb6378-1540-4388-8d75-412beaa7884f;"><path d="M122.53-17.48L122.53 0L117.42 0L117.42-2.09L117.42-2.09Q116.51-0.85 115.23-0.25L115.23-0.25L115.23-0.25Q113.95 0.35 112.42 0.35L112.42 0.35L112.42 0.35Q110.42 0.35 108.85-0.36L108.85-0.36L108.85-0.36Q107.27-1.07 106.18-2.31L106.18-2.31L106.18-2.31Q105.09-3.54 104.52-5.21L104.52-5.21L104.52-5.21Q103.94-6.87 103.94-8.78L103.94-8.78L103.94-8.78Q103.94-10.69 104.52-12.35L104.52-12.35L104.52-12.35Q105.09-14.02 106.18-15.25L106.18-15.25L106.18-15.25Q107.27-16.48 108.85-17.20L108.85-17.20L108.85-17.20Q110.42-17.91 112.42-17.91L112.42-17.91L112.42-17.91Q113.43-17.91 114.35-17.60L114.35-17.60L114.35-17.60Q115.27-17.30 116.03-16.75L116.03-16.75L116.03-16.75Q116.79-16.20 117.38-15.42L117.38-15.42L117.38-15.42Q117.96-14.64 118.29-13.68L118.29-13.68L120.56-17.48L122.53-17.48zM117.39-8.78L117.39-8.78L117.39-8.78Q117.39-9.46 117.32-10.22L117.32-10.22L117.32-10.22Q117.25-10.97 117.08-11.72L117.08-11.72L117.08-11.72Q116.92-12.46 116.62-13.13L116.62-13.13L116.62-13.13Q116.33-13.80 115.86-14.33L115.86-14.33L115.86-14.33Q115.40-14.85 114.75-15.15L114.75-15.15L114.75-15.15Q114.10-15.45 113.24-15.45L113.24-15.45L113.24-15.45Q112.38-15.45 111.74-15.14L111.74-15.14L111.74-15.14Q111.10-14.83 110.65-14.31L110.65-14.31L110.65-14.31Q110.20-13.79 109.90-13.11L109.90-13.11L109.90-13.11Q109.60-12.43 109.44-11.69L109.44-11.69L109.44-11.69Q109.27-10.94 109.20-10.19L109.20-10.19L109.20-10.19Q109.14-9.45 109.14-8.78L109.14-8.78L109.14-8.78Q109.14-8.11 109.20-7.36L109.20-7.36L109.20-7.36Q109.27-6.60 109.44-5.86L109.44-5.86L109.44-5.86Q109.60-5.12 109.90-4.44L109.90-4.44L109.90-4.44Q110.20-3.75 110.65-3.23L110.65-3.23L110.65-3.23Q111.10-2.71 111.74-2.40L111.74-2.40L111.74-2.40Q112.38-2.09 113.24-2.09L113.24-2.09L113.24-2.09Q114.02-2.09 114.64-2.41L114.64-2.41L114.64-2.41Q115.25-2.74 115.71-3.28L115.71-3.28L115.71-3.28Q116.17-3.83 116.49-4.53L116.49-4.53L116.49-4.53Q116.81-5.22 117.01-5.96L117.01-5.96L117.01-5.96Q117.20-6.71 117.29-7.44L117.29-7.44L117.29-7.44Q117.39-8.17 117.39-8.78" fill="#0098ff" stroke="none" stroke-width="none" transform="translate(-160.04501152038574,9.642625002543133)" style="fill: rgb(0, 152, 255);"></path></g><g class="path" style="opacity: 1; transform-origin: -24.92px -2.11238px; animation: 10s linear -3.52s infinite normal forwards running fade-2fcb6378-1540-4388-8d75-412beaa7884f;"><path d="M144.42-23.92L144.42 0L142.45 0L140.18-3.80L140.18-3.80Q139.85-2.85 139.27-2.07L139.27-2.07L139.27-2.07Q138.68-1.30 137.92-0.75L137.92-0.75L137.92-0.75Q137.15-0.20 136.24 0.11L136.24 0.11L136.24 0.11Q135.32 0.41 134.31 0.41L134.31 0.41L134.31 0.41Q132.31 0.41 130.74-0.30L130.74-0.30L130.74-0.30Q129.16-1.01 128.07-2.25L128.07-2.25L128.07-2.25Q126.98-3.48 126.41-5.15L126.41-5.15L126.41-5.15Q125.83-6.81 125.83-8.72L125.83-8.72L125.83-8.72Q125.83-10.63 126.41-12.29L126.41-12.29L126.41-12.29Q126.98-13.96 128.07-15.18L128.07-15.18L128.07-15.18Q129.16-16.41 130.74-17.12L130.74-17.12L130.74-17.12Q132.31-17.83 134.31-17.83L134.31-17.83L134.31-17.83Q135.84-17.83 137.12-17.24L137.12-17.24L137.12-17.24Q138.40-16.65 139.30-15.39L139.30-15.39L139.30-23.92L144.42-23.92zM139.27-8.72L139.27-8.72L139.27-8.72Q139.27-9.32 139.18-10.05L139.18-10.05L139.18-10.05Q139.09-10.78 138.89-11.52L138.89-11.52L138.89-11.52Q138.70-12.26 138.38-12.96L138.38-12.96L138.38-12.96Q138.06-13.65 137.60-14.20L137.60-14.20L137.60-14.20Q137.14-14.74 136.53-15.07L136.53-15.07L136.53-15.07Q135.91-15.39 135.13-15.39L135.13-15.39L135.13-15.39Q134.26-15.39 133.63-15.08L133.63-15.08L133.63-15.08Q132.99-14.77 132.54-14.25L132.54-14.25L132.54-14.25Q132.08-13.73 131.79-13.05L131.79-13.05L131.79-13.05Q131.49-12.37 131.33-11.63L131.33-11.63L131.33-11.63Q131.16-10.88 131.09-10.13L131.09-10.13L131.09-10.13Q131.02-9.38 131.02-8.72L131.02-8.72L131.02-8.72Q131.02-8.05 131.09-7.30L131.09-7.30L131.09-7.30Q131.16-6.55 131.33-5.81L131.33-5.81L131.33-5.81Q131.49-5.07 131.79-4.38L131.79-4.38L131.79-4.38Q132.08-3.69 132.54-3.17L132.54-3.17L132.54-3.17Q132.99-2.65 133.63-2.34L133.63-2.34L133.63-2.34Q134.26-2.03 135.13-2.03L135.13-2.03L135.13-2.03Q135.99-2.03 136.64-2.33L136.64-2.33L136.64-2.33Q137.29-2.63 137.75-3.16L137.75-3.16L137.75-3.16Q138.21-3.68 138.51-4.35L138.51-4.35L138.51-4.35Q138.80-5.03 138.97-5.77L138.97-5.77L138.97-5.77Q139.14-6.52 139.20-7.28L139.20-7.28L139.20-7.28Q139.27-8.04 139.27-8.72" fill="#0098ff" stroke="none" stroke-width="none" transform="translate(-160.04501152038574,9.642625002543133)" style="fill: rgb(0, 152, 255);"></path></g><g class="path" style="opacity: 1; transform-origin: -2.65002px 0.862625px; animation: 10s linear -3.08s infinite normal forwards running fade-2fcb6378-1540-4388-8d75-412beaa7884f;"><path d="M167.15-8.78L167.15-8.78L167.15-8.78Q167.15-7.42 166.79-6.22L166.79-6.22L166.79-6.22Q166.43-5.03 165.78-4.01L165.78-4.01L165.78-4.01Q165.14-3.00 164.23-2.19L164.23-2.19L164.23-2.19Q163.33-1.38 162.24-0.82L162.24-0.82L162.24-0.82Q161.16-0.26 159.93 0.05L159.93 0.05L159.93 0.05Q158.69 0.35 157.39 0.35L157.39 0.35L157.39 0.35Q156.09 0.35 154.86 0.05L154.86 0.05L154.86 0.05Q153.64-0.26 152.56-0.82L152.56-0.82L152.56-0.82Q151.47-1.38 150.56-2.19L150.56-2.19L150.56-2.19Q149.66-3.00 149.01-4.01L149.01-4.01L149.01-4.01Q148.37-5.03 148.01-6.23L148.01-6.23L148.01-6.23Q147.64-7.43 147.64-8.78L147.64-8.78L147.64-8.78Q147.64-10.13 148.01-11.33L148.01-11.33L148.01-11.33Q148.37-12.53 149.01-13.55L149.01-13.55L149.01-13.55Q149.66-14.56 150.56-15.37L150.56-15.37L150.56-15.37Q151.47-16.18 152.56-16.74L152.56-16.74L152.56-16.74Q153.64-17.30 154.86-17.60L154.86-17.60L154.86-17.60Q156.09-17.91 157.39-17.91L157.39-17.91L157.39-17.91Q158.69-17.91 159.93-17.60L159.93-17.60L159.93-17.60Q161.16-17.30 162.24-16.74L162.24-16.74L162.24-16.74Q163.33-16.18 164.23-15.37L164.23-15.37L164.23-15.37Q165.14-14.56 165.78-13.55L165.78-13.55L165.78-13.55Q166.43-12.53 166.79-11.33L166.79-11.33L166.79-11.33Q167.15-10.13 167.15-8.78zM161.95-8.78L161.95-8.78L161.95-8.78Q161.95-9.51 161.86-10.32L161.86-10.32L161.86-10.32Q161.78-11.13 161.58-11.91L161.58-11.91L161.58-11.91Q161.39-12.68 161.05-13.40L161.05-13.40L161.05-13.40Q160.71-14.12 160.21-14.66L160.21-14.66L160.21-14.66Q159.71-15.20 159.01-15.52L159.01-15.52L159.01-15.52Q158.31-15.85 157.39-15.85L157.39-15.85L157.39-15.85Q156.51-15.85 155.83-15.52L155.83-15.52L155.83-15.52Q155.15-15.18 154.64-14.63L154.64-14.63L154.64-14.63Q154.14-14.08 153.80-13.35L153.80-13.35L153.80-13.35Q153.46-12.62 153.24-11.84L153.24-11.84L153.24-11.84Q153.03-11.06 152.94-10.27L152.94-10.27L152.94-10.27Q152.85-9.48 152.85-8.78L152.85-8.78L152.85-8.78Q152.85-8.08 152.94-7.29L152.94-7.29L152.94-7.29Q153.03-6.49 153.24-5.71L153.24-5.71L153.24-5.71Q153.46-4.92 153.80-4.20L153.80-4.20L153.80-4.20Q154.14-3.48 154.64-2.93L154.64-2.93L154.64-2.93Q155.15-2.38 155.83-2.04L155.83-2.04L155.83-2.04Q156.51-1.71 157.39-1.71L157.39-1.71L157.39-1.71Q158.30-1.71 159.00-2.04L159.00-2.04L159.00-2.04Q159.69-2.36 160.20-2.91L160.20-2.91L160.20-2.91Q160.71-3.45 161.04-4.16L161.04-4.16L161.04-4.16Q161.37-4.87 161.58-5.66L161.58-5.66L161.58-5.66Q161.78-6.45 161.86-7.25L161.86-7.25L161.86-7.25Q161.95-8.05 161.95-8.78" fill="#0098ff" stroke="none" stroke-width="none" transform="translate(-160.04501152038574,9.642625002543133)" style="fill: rgb(0, 152, 255);"></path></g><g class="path" style="opacity: 1; transform-origin: 20.945px 0.902625px; animation: 10s linear -2.64s infinite normal forwards running fade-2fcb6378-1540-4388-8d75-412beaa7884f;"><path d="M180.88-10.63L177.99 0L173.39 0L168.61-17.48L173.72-17.48L176.72-5.22L179.22-17.48L183.82-17.48L186.88-4.89L189.83-17.48L193.37-17.48L188.07 0L183.47 0L180.88-10.63" fill="#0098ff" stroke="none" stroke-width="none" transform="translate(-160.04501152038574,9.642625002543133)" style="fill: rgb(0, 152, 255);"></path></g><g class="path" style="opacity: 1; transform-origin: 47.01px -1.25737px; animation: 10s linear -2.2s infinite normal forwards running fade-2fcb6378-1540-4388-8d75-412beaa7884f;"><path d="M217.62-10.93L217.62-10.93L217.62-10.93Q217.62-9.34 217.20-7.91L217.20-7.91L217.20-7.91Q216.77-6.48 216.01-5.27L216.01-5.27L216.01-5.27Q215.24-4.06 214.18-3.08L214.18-3.08L214.18-3.08Q213.13-2.10 211.85-1.42L211.85-1.42L211.85-1.42Q210.57-0.74 209.11-0.37L209.11-0.37L209.11-0.37Q207.65 0 206.10 0L206.10 0L196.49 0L196.49-21.80L206.10-21.80L206.10-21.80Q207.65-21.80 209.10-21.43L209.10-21.43L209.10-21.43Q210.55-21.07 211.83-20.40L211.83-20.40L211.83-20.40Q213.11-19.72 214.18-18.75L214.18-18.75L214.18-18.75Q215.24-17.79 216.01-16.58L216.01-16.58L216.01-16.58Q216.77-15.38 217.20-13.95L217.20-13.95L217.20-13.95Q217.62-12.52 217.62-10.93zM211.52-10.93L211.52-10.93L211.52-10.93Q211.52-12.70 211.09-14.30L211.09-14.30L211.09-14.30Q210.66-15.89 209.75-17.10L209.75-17.10L209.75-17.10Q208.84-18.32 207.44-19.03L207.44-19.03L207.44-19.03Q206.04-19.74 204.09-19.74L204.09-19.74L202.50-19.74L202.50-2.12L204.09-2.12L204.09-2.12Q206.01-2.12 207.41-2.84L207.41-2.84L207.41-2.84Q208.81-3.56 209.73-4.78L209.73-4.78L209.73-4.78Q210.64-5.99 211.08-7.58L211.08-7.58L211.08-7.58Q211.52-9.17 211.52-10.93" fill="#0098ff" stroke="none" stroke-width="none" transform="translate(-160.04501152038574,9.642625002543133)" style="fill: rgb(0, 152, 255);"></path></g><g class="path" style="opacity: 1; transform-origin: 68.125px 0.687625px; animation: 10s linear -1.76s infinite normal forwards running fade-2fcb6378-1540-4388-8d75-412beaa7884f;"><path d="M235.60-15.94L235.60-15.94L232.73-11.17L232.73-11.17Q232.55-11.78 232.26-12.53L232.26-12.53L232.26-12.53Q231.97-13.29 231.55-13.95L231.55-13.95L231.55-13.95Q231.12-14.61 230.53-15.05L230.53-15.05L230.53-15.05Q229.94-15.50 229.17-15.50L229.17-15.50L229.17-15.50Q228.46-15.50 227.94-15.14L227.94-15.14L227.94-15.14Q227.41-14.77 227.05-14.19L227.05-14.19L227.05-14.19Q226.69-13.61 226.45-12.87L226.45-12.87L226.45-12.87Q226.22-12.14 226.09-11.39L226.09-11.39L226.09-11.39Q225.96-10.64 225.92-9.95L225.92-9.95L225.92-9.95Q225.87-9.26 225.87-8.76L225.87-8.76L225.87 0L220.74 0L220.74-17.48L222.71-17.48L224.78-13.41L224.78-13.41Q225.20-14.40 225.75-15.22L225.75-15.22L225.75-15.22Q226.29-16.04 227.01-16.64L227.01-16.64L227.01-16.64Q227.72-17.24 228.62-17.57L228.62-17.57L228.62-17.57Q229.52-17.91 230.65-17.91L230.65-17.91L230.65-17.91Q231.24-17.91 231.97-17.81L231.97-17.81L231.97-17.81Q232.70-17.71 233.39-17.48L233.39-17.48L233.39-17.48Q234.09-17.24 234.68-16.86L234.68-16.86L234.68-16.86Q235.27-16.48 235.60-15.94" fill="#0098ff" stroke="none" stroke-width="none" transform="translate(-160.04501152038574,9.642625002543133)" style="fill: rgb(0, 152, 255);"></path></g><g class="path" style="opacity: 1; transform-origin: 85.655px 0.862625px; animation: 10s linear -1.32s infinite normal forwards running fade-2fcb6378-1540-4388-8d75-412beaa7884f;"><path d="M254.99-17.48L254.99 0L249.88 0L249.88-2.09L249.88-2.09Q248.97-0.85 247.69-0.25L247.69-0.25L247.69-0.25Q246.41 0.35 244.88 0.35L244.88 0.35L244.88 0.35Q242.88 0.35 241.31-0.36L241.31-0.36L241.31-0.36Q239.74-1.07 238.65-2.31L238.65-2.31L238.65-2.31Q237.56-3.54 236.98-5.21L236.98-5.21L236.98-5.21Q236.41-6.87 236.41-8.78L236.41-8.78L236.41-8.78Q236.41-10.69 236.98-12.35L236.98-12.35L236.98-12.35Q237.56-14.02 238.65-15.25L238.65-15.25L238.65-15.25Q239.74-16.48 241.31-17.20L241.31-17.20L241.31-17.20Q242.88-17.91 244.88-17.91L244.88-17.91L244.88-17.91Q245.90-17.91 246.81-17.60L246.81-17.60L246.81-17.60Q247.73-17.30 248.49-16.75L248.49-16.75L248.49-16.75Q249.26-16.20 249.84-15.42L249.84-15.42L249.84-15.42Q250.42-14.64 250.75-13.68L250.75-13.68L253.03-17.48L254.99-17.48zM249.85-8.78L249.85-8.78L249.85-8.78Q249.85-9.46 249.78-10.22L249.78-10.22L249.78-10.22Q249.71-10.97 249.54-11.72L249.54-11.72L249.54-11.72Q249.38-12.46 249.08-13.13L249.08-13.13L249.08-13.13Q248.79-13.80 248.33-14.33L248.33-14.33L248.33-14.33Q247.86-14.85 247.21-15.15L247.21-15.15L247.21-15.15Q246.56-15.45 245.70-15.45L245.70-15.45L245.70-15.45Q244.84-15.45 244.20-15.14L244.20-15.14L244.20-15.14Q243.56-14.83 243.11-14.31L243.11-14.31L243.11-14.31Q242.66-13.79 242.36-13.11L242.36-13.11L242.36-13.11Q242.07-12.43 241.90-11.69L241.90-11.69L241.90-11.69Q241.73-10.94 241.67-10.19L241.67-10.19L241.67-10.19Q241.60-9.45 241.60-8.78L241.60-8.78L241.60-8.78Q241.60-8.11 241.67-7.36L241.67-7.36L241.67-7.36Q241.73-6.60 241.90-5.86L241.90-5.86L241.90-5.86Q242.07-5.12 242.36-4.44L242.36-4.44L242.36-4.44Q242.66-3.75 243.11-3.23L243.11-3.23L243.11-3.23Q243.56-2.71 244.20-2.40L244.20-2.40L244.20-2.40Q244.84-2.09 245.70-2.09L245.70-2.09L245.70-2.09Q246.49-2.09 247.10-2.41L247.10-2.41L247.10-2.41Q247.71-2.74 248.17-3.28L248.17-3.28L248.17-3.28Q248.64-3.83 248.95-4.53L248.95-4.53L248.95-4.53Q249.27-5.22 249.47-5.96L249.47-5.96L249.47-5.96Q249.67-6.71 249.76-7.44L249.76-7.44L249.76-7.44Q249.85-8.17 249.85-8.78" fill="#0098ff" stroke="none" stroke-width="none" transform="translate(-160.04501152038574,9.642625002543133)" style="fill: rgb(0, 152, 255);"></path></g><g class="path" style="opacity: 1; transform-origin: 107.53px 4.72262px; animation: 10s linear -0.88s infinite normal forwards running fade-2fcb6378-1540-4388-8d75-412beaa7884f;"><path d="M276.87-17.48L276.87-2.10L276.87-2.10Q276.87-0.02 276.25 1.83L276.25 1.83L276.25 1.83Q275.62 3.68 274.44 5.06L274.44 5.06L274.44 5.06Q273.26 6.45 271.55 7.26L271.55 7.26L271.55 7.26Q269.83 8.07 267.63 8.07L267.63 8.07L267.63 8.07Q266.42 8.07 265.19 7.80L265.19 7.80L265.19 7.80Q263.95 7.52 262.86 6.96L262.86 6.96L262.86 6.96Q261.76 6.39 260.89 5.52L260.89 5.52L260.89 5.52Q260.02 4.65 259.52 3.47L259.52 3.47L261.73 2.63L261.73 2.63Q262.02 3.38 262.48 4.00L262.48 4.00L262.48 4.00Q262.94 4.62 263.55 5.06L263.55 5.06L263.55 5.06Q264.15 5.51 264.88 5.76L264.88 5.76L264.88 5.76Q265.60 6.01 266.41 6.01L266.41 6.01L266.41 6.01Q267.92 6.01 268.94 5.39L268.94 5.39L268.94 5.39Q269.96 4.77 270.58 3.77L270.58 3.77L270.58 3.77Q271.20 2.77 271.48 1.51L271.48 1.51L271.48 1.51Q271.75 0.24 271.75-1.06L271.75-1.06L271.75-2.09L271.75-2.09Q270.84-0.85 269.56-0.25L269.56-0.25L269.56-0.25Q268.28 0.35 266.75 0.35L266.75 0.35L266.75 0.35Q264.76 0.35 263.18-0.36L263.18-0.36L263.18-0.36Q261.61-1.07 260.52-2.31L260.52-2.31L260.52-2.31Q259.43-3.54 258.85-5.21L258.85-5.21L258.85-5.21Q258.28-6.87 258.28-8.78L258.28-8.78L258.28-8.78Q258.28-10.69 258.85-12.35L258.85-12.35L258.85-12.35Q259.43-14.02 260.52-15.25L260.52-15.25L260.52-15.25Q261.61-16.48 263.18-17.20L263.18-17.20L263.18-17.20Q264.76-17.91 266.75-17.91L266.75-17.91L266.75-17.91Q267.77-17.91 268.68-17.60L268.68-17.60L268.68-17.60Q269.60-17.30 270.36-16.75L270.36-16.75L270.36-16.75Q271.13-16.20 271.71-15.42L271.71-15.42L271.71-15.42Q272.29-14.64 272.63-13.68L272.63-13.68L274.90-17.48L276.87-17.48zM271.72-8.78L271.72-8.78L271.72-8.78Q271.72-9.46 271.65-10.22L271.65-10.22L271.65-10.22Q271.58-10.97 271.42-11.72L271.42-11.72L271.42-11.72Q271.25-12.46 270.95-13.13L270.95-13.13L270.95-13.13Q270.66-13.80 270.20-14.33L270.20-14.33L270.20-14.33Q269.74-14.85 269.09-15.15L269.09-15.15L269.09-15.15Q268.43-15.45 267.57-15.45L267.57-15.45L267.57-15.45Q266.71-15.45 266.07-15.14L266.07-15.14L266.07-15.14Q265.44-14.83 264.98-14.31L264.98-14.31L264.98-14.31Q264.53-13.79 264.23-13.11L264.23-13.11L264.23-13.11Q263.94-12.43 263.77-11.69L263.77-11.69L263.77-11.69Q263.61-10.94 263.54-10.19L263.54-10.19L263.54-10.19Q263.47-9.45 263.47-8.78L263.47-8.78L263.47-8.78Q263.47-8.11 263.54-7.36L263.54-7.36L263.54-7.36Q263.61-6.60 263.77-5.86L263.77-5.86L263.77-5.86Q263.94-5.12 264.23-4.44L264.23-4.44L264.23-4.44Q264.53-3.75 264.98-3.23L264.98-3.23L264.98-3.23Q265.44-2.71 266.07-2.40L266.07-2.40L266.07-2.40Q266.71-2.09 267.57-2.09L267.57-2.09L267.57-2.09Q268.36-2.09 268.97-2.41L268.97-2.41L268.97-2.41Q269.58-2.74 270.05-3.28L270.05-3.28L270.05-3.28Q270.51-3.83 270.83-4.53L270.83-4.53L270.83-4.53Q271.14-5.22 271.34-5.96L271.34-5.96L271.34-5.96Q271.54-6.71 271.63-7.44L271.63-7.44L271.63-7.44Q271.72-8.17 271.72-8.78" fill="#0098ff" stroke="none" stroke-width="none" transform="translate(-160.04501152038574,9.642625002543133)" style="fill: rgb(0, 152, 255);"></path></g><g class="path" style="opacity: 1; transform-origin: 129.8px 0.862625px; animation: 10s linear -0.44s infinite normal forwards running fade-2fcb6378-1540-4388-8d75-412beaa7884f;"><path d="M299.60-8.78L299.60-8.78L299.60-8.78Q299.60-7.42 299.24-6.22L299.24-6.22L299.24-6.22Q298.87-5.03 298.23-4.01L298.23-4.01L298.23-4.01Q297.59-3.00 296.68-2.19L296.68-2.19L296.68-2.19Q295.77-1.38 294.69-0.82L294.69-0.82L294.69-0.82Q293.61-0.26 292.37 0.05L292.37 0.05L292.37 0.05Q291.14 0.35 289.84 0.35L289.84 0.35L289.84 0.35Q288.54 0.35 287.31 0.05L287.31 0.05L287.31 0.05Q286.08-0.26 285.00-0.82L285.00-0.82L285.00-0.82Q283.92-1.38 283.01-2.19L283.01-2.19L283.01-2.19Q282.10-3.00 281.46-4.01L281.46-4.01L281.46-4.01Q280.82-5.03 280.45-6.23L280.45-6.23L280.45-6.23Q280.09-7.43 280.09-8.78L280.09-8.78L280.09-8.78Q280.09-10.13 280.45-11.33L280.45-11.33L280.45-11.33Q280.82-12.53 281.46-13.55L281.46-13.55L281.46-13.55Q282.10-14.56 283.01-15.37L283.01-15.37L283.01-15.37Q283.92-16.18 285.00-16.74L285.00-16.74L285.00-16.74Q286.08-17.30 287.31-17.60L287.31-17.60L287.31-17.60Q288.54-17.91 289.84-17.91L289.84-17.91L289.84-17.91Q291.14-17.91 292.37-17.60L292.37-17.60L292.37-17.60Q293.61-17.30 294.69-16.74L294.69-16.74L294.69-16.74Q295.77-16.18 296.68-15.37L296.68-15.37L296.68-15.37Q297.59-14.56 298.23-13.55L298.23-13.55L298.23-13.55Q298.87-12.53 299.24-11.33L299.24-11.33L299.24-11.33Q299.60-10.13 299.60-8.78zM294.39-8.78L294.39-8.78L294.39-8.78Q294.39-9.51 294.31-10.32L294.31-10.32L294.31-10.32Q294.23-11.13 294.03-11.91L294.03-11.91L294.03-11.91Q293.83-12.68 293.49-13.40L293.49-13.40L293.49-13.40Q293.15-14.12 292.65-14.66L292.65-14.66L292.65-14.66Q292.15-15.20 291.46-15.52L291.46-15.52L291.46-15.52Q290.76-15.85 289.84-15.85L289.84-15.85L289.84-15.85Q288.96-15.85 288.28-15.52L288.28-15.52L288.28-15.52Q287.60-15.18 287.09-14.63L287.09-14.63L287.09-14.63Q286.58-14.08 286.24-13.35L286.24-13.35L286.24-13.35Q285.90-12.62 285.69-11.84L285.69-11.84L285.69-11.84Q285.48-11.06 285.39-10.27L285.39-10.27L285.39-10.27Q285.30-9.48 285.30-8.78L285.30-8.78L285.30-8.78Q285.30-8.08 285.39-7.29L285.39-7.29L285.39-7.29Q285.48-6.49 285.69-5.71L285.69-5.71L285.69-5.71Q285.90-4.92 286.24-4.20L286.24-4.20L286.24-4.20Q286.58-3.48 287.09-2.93L287.09-2.93L287.09-2.93Q287.60-2.38 288.28-2.04L288.28-2.04L288.28-2.04Q288.96-1.71 289.84-1.71L289.84-1.71L289.84-1.71Q290.75-1.71 291.44-2.04L291.44-2.04L291.44-2.04Q292.14-2.36 292.65-2.91L292.65-2.91L292.65-2.91Q293.15-3.45 293.49-4.16L293.49-4.16L293.49-4.16Q293.82-4.87 294.02-5.66L294.02-5.66L294.02-5.66Q294.23-6.45 294.31-7.25L294.31-7.25L294.31-7.25Q294.39-8.05 294.39-8.78" fill="#0098ff" stroke="none" stroke-width="none" transform="translate(-160.04501152038574,9.642625002543133)" style="fill: rgb(0, 152, 255);"></path></g><g class="path" style="opacity: 1; transform-origin: 151.72px 2.54762px; animation: 10s linear 0s infinite normal forwards running fade-2fcb6378-1540-4388-8d75-412beaa7884f;"><path d="M320.70-10.02L320.70-10.02L320.70-10.02Q320.70-8.25 320.27-6.33L320.27-6.33L320.27-6.33Q319.84-4.40 319.07-2.56L319.07-2.56L319.07-2.56Q318.29-0.71 317.22 0.92L317.22 0.92L317.22 0.92Q316.15 2.54 314.86 3.72L314.86 3.72L312.94 2.68L312.94 2.68Q313.35 1.92 313.71 0.98L313.71 0.98L313.71 0.98Q314.07 0.05 314.37-1.01L314.37-1.01L314.37-1.01Q314.66-2.06 314.90-3.18L314.90-3.18L314.90-3.18Q315.13-4.30 315.29-5.40L315.29-5.40L315.29-5.40Q315.45-6.49 315.53-7.53L315.53-7.53L315.53-7.53Q315.62-8.57 315.62-9.46L315.62-9.46L315.62-9.46Q315.62-10.05 315.57-10.72L315.57-10.72L315.57-10.72Q315.52-11.40 315.38-12.07L315.38-12.07L315.38-12.07Q315.24-12.75 315.00-13.37L315.00-13.37L315.00-13.37Q314.75-13.99 314.35-14.46L314.35-14.46L314.35-14.46Q313.95-14.92 313.38-15.21L313.38-15.21L313.38-15.21Q312.82-15.50 312.04-15.50L312.04-15.50L312.04-15.50Q311.29-15.50 310.70-15.16L310.70-15.16L310.70-15.16Q310.11-14.82 309.65-14.27L309.65-14.27L309.65-14.27Q309.20-13.71 308.87-13.00L308.87-13.00L308.87-13.00Q308.55-12.29 308.34-11.54L308.34-11.54L308.34-11.54Q308.14-10.79 308.05-10.07L308.05-10.07L308.05-10.07Q307.96-9.34 307.96-8.76L307.96-8.76L307.96 0L302.83 0L302.83-17.48L304.79-17.48L307.14-13.41L307.14-13.41Q307.56-14.43 308.20-15.26L308.20-15.26L308.20-15.26Q308.83-16.09 309.64-16.68L309.64-16.68L309.64-16.68Q310.44-17.27 311.42-17.59L311.42-17.59L311.42-17.59Q312.39-17.91 313.53-17.91L313.53-17.91L313.53-17.91Q315.34-17.91 316.69-17.32L316.69-17.32L316.69-17.32Q318.04-16.73 318.93-15.67L318.93-15.67L318.93-15.67Q319.82-14.62 320.26-13.18L320.26-13.18L320.26-13.18Q320.70-11.73 320.70-10.02" fill="#0098ff" stroke="none" stroke-width="none" transform="translate(-160.04501152038574,9.642625002543133)" style="fill: rgb(0, 152, 255);"></path></g></g>
</g>
</g>
<style id="fade-2fcb6378-1540-4388-8d75-412beaa7884f" data-anikit="">@keyframes fade-2fcb6378-1540-4388-8d75-412beaa7884f
{
  0% {
    animation-timing-function: cubic-bezier(0.2057,0.573,0.3723,0.9184);
    opacity: 1;
  }
  100% {
    opacity: 0;
  }
}</style></svg>